<?xml version="1.0" standalone="no"?>
<!DOCTYPE svg PUBLIC "-//W3C//DTD SVG 1.1//EN"
"http://www.w3.org/Graphics/SVG/1.1/DTD/svg11.dtd">

<svg width="609" height="487" view_box="0 0 609 487"
xmlns="http://www.w3.org/2000/svg"
xmlns:link="http://www.w3.org/1999/xlink">

<desc>Generated by Mocodo 2.3.7 on Fri, 10 Jul 2020 18:06:42</desc>

<rect id="frame" x="0" y="0" width="609" height="487" fill="none" stroke="none" stroke-width="0"/>

<!-- Association NewTable0 -->
<line x1="322" y1="256" x2="105" y2="97" stroke="#000000" stroke-width="1"/>
<text x="240" y="223.22309268052163" fill="#000000" font-family="Futura" font-size="11">1,1</text>
<g id="association-NewTable0">
	<path d="M 187 26 a 14 14 90 0 1 14 14 V 54 h -192 V 40 a 14 14 90 0 1 14 -14" fill="#FFFFFF" stroke="#FFFFFF" stroke-width="0"/>
	<path d="M 201 54.0 v 100 a 14 14 90 0 1 -14 14 H 23 a 14 14 90 0 1 -14 -14 V 54.0 H 192" fill="#FFFFFF" stroke="#FFFFFF" stroke-width="0"/>
	<rect x="9" y="26" width="192" height="142" fill="none" rx="14" stroke="#000000" stroke-width="1.5"/>
	<line x1="9" y1="54" x2="201" y2="54" stroke="#000000" stroke-width="1.5"/>
	<text x="59" y="47.3" fill="#000000" font-family="Copperplate" font-size="18">NewTable</text>
	<text x="16" y="72.1" fill="#000000" font-family="Gill Sans" font-size="15">Country</text>
	<text x="16" y="89.1" fill="#000000" font-family="Gill Sans" font-size="15">Country Code (3-character)</text>
	<text x="16" y="106.1" fill="#000000" font-family="Gill Sans" font-size="15">Country Code (2-character)</text>
	<text x="16" y="123.1" fill="#000000" font-family="Gill Sans" font-size="15">Currency</text>
	<text x="16" y="140.0" fill="#000000" font-family="Gill Sans" font-size="15">Currency Code</text>
	<text x="16" y="157.0" fill="#000000" font-family="Gill Sans" font-size="15"></text>
</g>

<!-- Association NewTable1 -->
<line x1="322" y1="256" x2="322" y2="97" stroke="#000000" stroke-width="1"/>
<text x="327.0" y="201" fill="#000000" font-family="Futura" font-size="11">1,1</text>
<g id="association-NewTable1">
	<path d="M 384 9 a 14 14 90 0 1 14 14 V 37 h -152 V 23 a 14 14 90 0 1 14 -14" fill="#FFFFFF" stroke="#FFFFFF" stroke-width="0"/>
	<path d="M 398 37.0 v 134 a 14 14 90 0 1 -14 14 H 260 a 14 14 90 0 1 -14 -14 V 37.0 H 152" fill="#FFFFFF" stroke="#FFFFFF" stroke-width="0"/>
	<rect x="246" y="9" width="152" height="176" fill="none" rx="14" stroke="#000000" stroke-width="1.5"/>
	<line x1="246" y1="37" x2="398" y2="37" stroke="#000000" stroke-width="1.5"/>
	<text x="276" y="30.299999999999997" fill="#000000" font-family="Copperplate" font-size="18">NewTable</text>
	<text x="253" y="55.0" fill="#000000" font-family="Gill Sans" font-size="15">Country</text>
	<text x="253" y="72.1" fill="#000000" font-family="Gill Sans" font-size="15">Land area (km2)</text>
	<text x="253" y="89.1" fill="#000000" font-family="Gill Sans" font-size="15">GDP nominal (US$M)</text>
	<text x="253" y="106.1" fill="#000000" font-family="Gill Sans" font-size="15">Per capita GDP (US$)</text>
	<text x="253" y="123.1" fill="#000000" font-family="Gill Sans" font-size="15">Population</text>
	<text x="253" y="140.0" fill="#000000" font-family="Gill Sans" font-size="15">Government</text>
	<text x="253" y="157.0" fill="#000000" font-family="Gill Sans" font-size="15">Conscription</text>
	<text x="253" y="174.0" fill="#000000" font-family="Gill Sans" font-size="15"></text>
</g>

<!-- Association NewTable2 -->
<line x1="322" y1="256" x2="532" y2="97" stroke="#000000" stroke-width="1"/>
<text x="386" y="221.62665744847672" fill="#000000" font-family="Futura" font-size="11">1,1</text>
<g id="association-NewTable2">
	<path d="M 574 26 a 14 14 90 0 1 14 14 V 54 h -112 V 40 a 14 14 90 0 1 14 -14" fill="#FFFFFF" stroke="#FFFFFF" stroke-width="0"/>
	<path d="M 588 54.0 v 100 a 14 14 90 0 1 -14 14 H 490 a 14 14 90 0 1 -14 -14 V 54.0 H 112" fill="#FFFFFF" stroke="#FFFFFF" stroke-width="0"/>
	<rect x="476" y="26" width="112" height="142" fill="none" rx="14" stroke="#000000" stroke-width="1.5"/>
	<line x1="476" y1="54" x2="588" y2="54" stroke="#000000" stroke-width="1.5"/>
	<text x="486" y="47.3" fill="#000000" font-family="Copperplate" font-size="18">NewTable</text>
	<text x="483" y="72.1" fill="#000000" font-family="Gill Sans" font-size="15">Country</text>
	<text x="483" y="89.1" fill="#000000" font-family="Gill Sans" font-size="15">Population</text>
	<text x="483" y="106.1" fill="#000000" font-family="Gill Sans" font-size="15">Members</text>
	<text x="483" y="123.1" fill="#000000" font-family="Gill Sans" font-size="15">Pop/Mem Ratio</text>
	<text x="483" y="140.0" fill="#000000" font-family="Gill Sans" font-size="15">Unnamed: 4</text>
	<text x="483" y="157.0" fill="#000000" font-family="Gill Sans" font-size="15"></text>
</g>

<!-- Association NewTable3 -->
<line x1="322" y1="256" x2="105" y2="390" stroke="#000000" stroke-width="1"/>
<text x="240" y="289.2029924125283" fill="#000000" font-family="Futura" font-size="11">1,1</text>
<g id="association-NewTable3">
	<path d="M 166 327 a 14 14 90 0 1 14 14 V 355 h -150 V 341 a 14 14 90 0 1 14 -14" fill="#FFFFFF" stroke="#FFFFFF" stroke-width="0"/>
	<path d="M 180 355.0 v 84 a 14 14 90 0 1 -14 14 H 44 a 14 14 90 0 1 -14 -14 V 355.0 H 150" fill="#FFFFFF" stroke="#FFFFFF" stroke-width="0"/>
	<rect x="30" y="327" width="150" height="126" fill="none" rx="14" stroke="#000000" stroke-width="1.5"/>
	<line x1="30" y1="355" x2="180" y2="355" stroke="#000000" stroke-width="1.5"/>
	<text x="59" y="348.3" fill="#000000" font-family="Copperplate" font-size="18">NewTable</text>
	<text x="37" y="373.1" fill="#000000" font-family="Gill Sans" font-size="15">ENTITY</text>
	<text x="37" y="390.1" fill="#000000" font-family="Gill Sans" font-size="15">CURRENCY</text>
	<text x="37" y="407.1" fill="#000000" font-family="Gill Sans" font-size="15">ALPHABETIC CODE</text>
	<text x="37" y="424.0" fill="#000000" font-family="Gill Sans" font-size="15">NUMERIC CODE</text>
	<text x="37" y="441.0" fill="#000000" font-family="Gill Sans" font-size="15"></text>
</g>

<!-- Association NewTable4 -->
<line x1="322" y1="256" x2="322" y2="390" stroke="#000000" stroke-width="1"/>
<text x="327.0" y="319" fill="#000000" font-family="Futura" font-size="11">1,1</text>
<g id="association-NewTable4">
	<path d="M 421 327 a 14 14 90 0 1 14 14 V 355 h -226 V 341 a 14 14 90 0 1 14 -14" fill="#FFFFFF" stroke="#FFFFFF" stroke-width="0"/>
	<path d="M 435 355.0 v 84 a 14 14 90 0 1 -14 14 H 223 a 14 14 90 0 1 -14 -14 V 355.0 H 226" fill="#FFFFFF" stroke="#FFFFFF" stroke-width="0"/>
	<rect x="209" y="327" width="226" height="126" fill="none" rx="14" stroke="#000000" stroke-width="1.5"/>
	<line x1="209" y1="355" x2="435" y2="355" stroke="#000000" stroke-width="1.5"/>
	<text x="276" y="348.3" fill="#000000" font-family="Copperplate" font-size="18">NewTable</text>
	<text x="216" y="373.1" fill="#000000" font-family="Gill Sans" font-size="15">Country</text>
	<text x="216" y="390.1" fill="#000000" font-family="Gill Sans" font-size="15">Currency Name / Currency Code</text>
	<text x="216" y="407.1" fill="#000000" font-family="Gill Sans" font-size="15">Rate Bank Will Buy From You:</text>
	<text x="216" y="424.0" fill="#000000" font-family="Gill Sans" font-size="15">Rate Bank Will Sell To You:</text>
	<text x="216" y="441.0" fill="#000000" font-family="Gill Sans" font-size="15"></text>
</g>

<!-- Association NewTable5 -->
<line x1="322" y1="256" x2="532" y2="390" stroke="#000000" stroke-width="1"/>
<text x="386" y="290.56135880191533" fill="#000000" font-family="Futura" font-size="11">1,1</text>
<g id="association-NewTable5">
	<path d="M 586 302 a 14 14 90 0 1 14 14 V 330 h -136 V 316 a 14 14 90 0 1 14 -14" fill="#FFFFFF" stroke="#FFFFFF" stroke-width="0"/>
	<path d="M 600 330.0 v 134 a 14 14 90 0 1 -14 14 H 478 a 14 14 90 0 1 -14 -14 V 330.0 H 136" fill="#FFFFFF" stroke="#FFFFFF" stroke-width="0"/>
	<rect x="464" y="302" width="136" height="176" fill="none" rx="14" stroke="#000000" stroke-width="1.5"/>
	<line x1="464" y1="330" x2="600" y2="330" stroke="#000000" stroke-width="1.5"/>
	<text x="486" y="323.3" fill="#000000" font-family="Copperplate" font-size="18">NewTable</text>
	<text x="471" y="348.0" fill="#000000" font-family="Gill Sans" font-size="15">State</text>
	<text x="471" y="365.1" fill="#000000" font-family="Gill Sans" font-size="15">Province</text>
	<text x="471" y="382.1" fill="#000000" font-family="Gill Sans" font-size="15">Territory</text>
	<text x="471" y="399.1" fill="#000000" font-family="Gill Sans" font-size="15">Country</text>
	<text x="471" y="416.1" fill="#000000" font-family="Gill Sans" font-size="15">etc</text>
	<text x="471" y="433.0" fill="#000000" font-family="Gill Sans" font-size="15">Area (square miles)</text>
	<text x="471" y="450.0" fill="#000000" font-family="Gill Sans" font-size="15">Comments</text>
	<text x="471" y="467.0" fill="#000000" font-family="Gill Sans" font-size="15"></text>
</g>

<!-- Entity InputTable -->
<g id="entity-InputTable">
	<g id="frame-InputTable">
		<rect x="263" y="209" width="118" height="30" fill="#FFFFFF" stroke="#FFFFFF" stroke-width="0"/>
		<rect x="263" y="239.0" width="118" height="64" fill="#FFFFFF" stroke="#FFFFFF" stroke-width="0"/>
		<rect x="263" y="209" width="118" height="94" fill="none" stroke="#000000" stroke-width="1.5"/>
		<line x1="263" y1="239" x2="381" y2="239" stroke="#000000" stroke-width="1.5"/>
	</g>
	<text x="271" y="230.3" fill="#000000" font-family="Copperplate" font-size="18">InputTable</text>
	<text x="271" y="256.1" fill="#000000" font-family="Gill Sans" font-size="15">C1</text>
	<line x1="271" y1="259" x2="290" y2="259" stroke="#000000" stroke-width="1"/>
	<text x="271" y="273.1" fill="#000000" font-family="Gill Sans" font-size="15">C2</text>
	<text x="271" y="290.0" fill="#000000" font-family="Gill Sans" font-size="15">C3</text>
</g>
</svg>